<svg width="87" height="28" viewBox="0 0 87 28" fill="none" xmlns="http://www.w3.org/2000/svg">
<path d="M37.586 12.571L37.966 14.3H38.08L38.384 12.514L40.379 6.7H43.058L39.524 15.896C39.2453 16.618 38.973 17.245 38.707 17.777C38.4537 18.309 38.175 18.7523 37.871 19.107C37.5797 19.449 37.2503 19.7087 36.883 19.886C36.5157 20.0507 36.085 20.133 35.591 20.133C35.173 20.133 34.831 20.1013 34.565 20.038C34.3117 19.9873 34.033 19.867 33.729 19.677L34.394 17.568C34.6093 17.682 34.8057 17.7517 34.983 17.777C35.1603 17.8023 35.3503 17.815 35.553 17.815C36.1483 17.815 36.5663 17.3463 36.807 16.409L31.829 6.7H34.888L37.586 12.571ZM51.6718 9.018H46.5418V20H43.9388V6.7H51.6718V9.018ZM60.108 14.433H55.244V20H52.641V6.7H55.244V12.115H60.108V6.7H62.711V20H60.108V14.433ZM74.46 9.018H70.584V20H67.981V9.018H64.086V6.7H74.46V9.018ZM80.7256 12.571L81.1056 14.3H81.2196L81.5236 12.514L83.5186 6.7H86.1976L82.6636 15.896C82.385 16.618 82.1126 17.245 81.8466 17.777C81.5933 18.309 81.3146 18.7523 81.0106 19.107C80.7193 19.449 80.39 19.7087 80.0226 19.886C79.6553 20.0507 79.2246 20.133 78.7306 20.133C78.3126 20.133 77.9706 20.1013 77.7046 20.038C77.4513 19.9873 77.1726 19.867 76.8686 19.677L77.5336 17.568C77.749 17.682 77.9453 17.7517 78.1226 17.777C78.3 17.8023 78.49 17.815 78.6926 17.815C79.288 17.815 79.706 17.3463 79.9466 16.409L74.9686 6.7H78.0276L80.7256 12.571Z" fill="white"/>
<path fill-rule="evenodd" clip-rule="evenodd" d="M10.8416 0.289587V5.44103H12.0698V11.1836H10.4181V14.9416H12.0698V25.0756C8.80881 24.5971 1.99045 21.9088 1.99045 12.9149C1.99045 11.8667 2.2869 6.79223 7.75006 3.54091V1.38744C5.12435 2.66826 8.30165e-07 6.50416 0 12.9149C-9.95312e-07 20.6008 4.61615 25.9201 12.0698 27.0602C12.6578 27.1502 13.2524 27.192 13.8485 27.1885V21.9088L18.7611 16.7573L21.0056 24.9837C24.9074 22.4802 27.1887 18.4538 27.1887 12.9149C27.1887 4.17561 19.3116 -1.35719 10.8416 0.289587ZM12.578 3.54091V1.97859C20.4127 1.68301 25.283 7.12757 25.283 12.9149C25.283 17.7782 23.1655 20.445 22.022 21.3176L20.2433 14.9416H21.0056V11.1836H19.2269L16.9824 3.54091H12.578ZM15.5425 5.44103H13.8485V9.62131L16.0507 7.34116L15.5425 5.44103ZM16.5165 9.24128L14.7802 11.1836H16.9824L16.5165 9.24128ZM17.9564 14.9416H13.8485V19.333L17.9564 14.9416Z" fill="white"/>
</svg>
